<svg id="Слой_1" data-name="Слой 1" xmlns="http://www.w3.org/2000/svg" viewBox="0 0 335.39 354.89"><defs><style>.cls-1,.cls-2{fill:none;stroke-linecap:round;stroke-linejoin:round;stroke-width:8px;}.cls-1{stroke:#ca3c3f;}.cls-2{stroke:#282f40;}</style></defs><title>award</title><line class="cls-1" x1="86.28" y1="17.92" x2="101.1" y2="43.59"/><line class="cls-1" x1="26.18" y1="77.65" x2="51.85" y2="92.47"/><line class="cls-1" x1="4" y1="159.43" x2="33.65" y2="159.43"/><line class="cls-1" x1="25.68" y1="241.34" x2="51.36" y2="226.52"/><line class="cls-1" x1="249.97" y1="18.41" x2="235.15" y2="44.09"/><line class="cls-1" x1="309.7" y1="78.51" x2="284.03" y2="93.33"/><line class="cls-1" x1="331.39" y1="160.42" x2="301.74" y2="160.42"/><line class="cls-1" x1="309.21" y1="242.2" x2="283.53" y2="227.38"/><path class="cls-2" d="M167.75,176.38V245.5c0,22.67-32.63,18.42-32.63,0l-6.57-92.88"/><path class="cls-2" d="M206.83,152.62l-6.3,92.88c.29,22.66-32.64,18.53-32.64,0"/><path class="cls-2" d="M167.69,4C182.32,4,197,10.73,197,29.33s-14.64,42-29.26,42-29.26-23.42-29.26-42S153.07,4,167.69,4Z"/><polyline class="cls-2" points="113.6 286.72 113.6 262.95 221.79 262.95 221.79 286.73"/><polyline class="cls-2" points="93.14 350.88 93.14 287.91 242.24 287.91 242.24 350.89"/><path class="cls-2" d="M184.89,62.78l35.31,9.36c8.38,2.22,17.26,7.73,15.69,16.7L228,133.56c-1.57,9-8.76,25.78-23.54,16.7l-26-16"/><path class="cls-2" d="M127.66,152.82c-11.79,2.67-18.95-11.44-20.32-19.26L99.49,88.84c-1.58-9,7.32-14.48,15.69-16.7l35.67-9.45"/><line class="cls-2" x1="72.29" y1="350.89" x2="263.1" y2="350.89"/><line class="cls-2" x1="202.89" y1="100.09" x2="199.01" y2="114.26"/></svg>