<svg id="Слой_1" data-name="Слой 1" xmlns="http://www.w3.org/2000/svg" viewBox="0 0 352 334.56"><defs><style>.cls-1,.cls-2{fill:none;stroke-linecap:round;stroke-linejoin:round;stroke-width:8px;}.cls-1{stroke:#282f40;}.cls-2{stroke:#ca3c3f;}</style></defs><title>bamboo</title><path class="cls-1" d="M148.87,329.5c0-18.55.28-39.11.28-57.61m57.74-4.34-67.61-.34m9.92-20c0-29.65.45-61.47.45-91.11m57.75-4.34-67.61-.34m11.79-17.77c0-26.15.3-52.46.3-78.62m40.64,275.56c0-18.55.28-40.11.28-58.61m0-23.71c0-29.65.45-62.47.45-92.11m2.06-23c0-39.33.45-78.9.45-118.24"/><path class="cls-2" d="M209,126c5.49-13.51,44.69-25.92,54.77-24.2,23.15,3.94,61.84,29.1,84.22,52.08-10.32-5-122.68-26.75-139-27.88Zm2.73,3.33c11.6-7.49,70.59,12,77.12,20,15,18.34,24.58,54.68,28.39,88.12C299.65,198,246.4,152.91,211.74,129.31ZM178.39,36.06C175.05,23.37,133,4.7,121.06,4.1c-27.31-1.39-77,12.2-107.58,27.26,30.86-5.09,77.61,2.21,87.24,2.85,16.13,1.08,66,11.22,77.67,1.85ZM130.3,242.35c2.69-14.29-16.42-46.17-23.56-50.27-16.41-9.43-78.13-6.48-102.73.39,77.68,7.29,115.48,41.87,126.3,49.87ZM87.14,217.84c-46.5,2.78-61.37,32.53-79,58.32,29.08-23.22,83.26-31.59,115.9-32.23"/></svg>