<svg id="Слой_1" data-name="Слой 1" xmlns="http://www.w3.org/2000/svg" viewBox="0 0 275.29 357.24"><defs><style>.cls-1,.cls-2{fill:none;stroke-linecap:round;stroke-linejoin:round;stroke-width:8px;}.cls-1{stroke:#282f40;}.cls-2{stroke:#ca3c3f;}</style></defs><title>employee</title><path class="cls-1" d="M112.45,190.87c.75,8.8-1.2,20.47-9.52,29.9a29.32,29.32,0,0,1-2.87,2.81l38,87.64,41-86.6a30.27,30.27,0,0,1-4.27-3.87c-7.32-8.12-8.85-20.86-8.17-30m100,162.5c14.38-75.39-1.81-105.67-87.56-128.63m-79-1-33.5,12.34C6.13,258.5-6,282.44,11.09,353.24M226.1,328H180.27"/><path class="cls-2" d="M117.79,72.63c15.44,0,52.27-2.69,62.79-18.28,11.69,12.08,21,48.75,21,68,0,36.52-25.88,75.57-58.49,75.57s-59-29.61-59-66.13,1.13-59.13,33.74-59.13Zm120.62,170c20.67-24.06,5.91-49.69,5.91-88C244.31,82,242.44-.7,140.94,4.21s-104.35,59-104.35,131.7c0,45.69.79,80.45,15.66,100"/></svg>