<svg id="Слой_1" data-name="Слой 1" xmlns="http://www.w3.org/2000/svg" viewBox="0 0 350.5 349.75"><defs><style>.cls-1,.cls-2{fill:none;stroke-linecap:round;stroke-linejoin:round;stroke-width:8px;}.cls-1{stroke:#ca3c3f;}.cls-2{stroke:#282f40;}</style></defs><title>fish</title><path class="cls-1" d="M179.6,251.64a70.18,70.18,0,1,0-70.18,70.18,70.19,70.19,0,0,0,70.18-70.18Zm-18.64,0a51.54,51.54,0,1,0-51.55,51.55A51.55,51.55,0,0,0,161,251.64Zm-103.09,0H161M83.65,296.28,135.19,207m0,89.27L83.65,207"/><path class="cls-2" d="M8.1,94.39C27.82,116.69,71,130.91,114.67,90.57M105.8,40.36a12.73,12.73,0,1,0-2.72,17.79,12.73,12.73,0,0,0,2.72-17.79Zm148.82,120,23.67-5.18L248.6,127.92l24.72-11.58L231.59,89.17l22.32-13.91L208.93,62l22.32-16.64L162,32.28m-100,159C30,160.56,9.63,123.24,5.51,83.43c-2.16-20.85-3-32.11,4.41-53.74,9.78,16.58,42.26,22,43.91,21.28.67-1.64-34.47-37-33.69-38.64,72.75-24.93,144.42,8,192.63,73.6a292.66,292.66,0,0,1,29.39,49.34c31.51,56,24.17,108.13,45.6,125.91,22.44,18.61,61.19,1.26,57,12,3.43,1.89,1.57,4.08-4.24,11.84-7.74,10.35-30.87,14.32-39.9,14.88-.56,9-4.55,32.17-14.9,39.91-7.77,5.81-10,7.66-11.84,4.24-10.58,4.1,3-39-12-57-12.72-15.33-43-15.93-79.73-26.58"/></svg>