<svg id="Слой_1" data-name="Слой 1" xmlns="http://www.w3.org/2000/svg" viewBox="0 0 348.48 284.21"><defs><style>.cls-1,.cls-2{fill:none;stroke-linecap:round;stroke-linejoin:round;stroke-width:8px;}.cls-1{stroke:#ca3c3f;}.cls-2{stroke:#282f40;}</style></defs><title>gift_card</title><path class="cls-1" d="M105.8,159.68c-41.68,16.23-77.17-7.27-58.39-32.81,8.71-11.84,32.34-13.67,44.72,3,10.33,13.93,13.93,25.8,17.87,29.57L174.22,221m-63.55-61.29c41.68,16.23,77.17-7.27,58.39-32.81-8.71-11.84-32.34-13.67-44.72,3-10.33,13.93-13.93,25.8-17.87,29.57L42.25,221M95.13,70.56v34.87m26.21-34.87v32.86M95.13,201.26v78.95m26.21-78.95v78.95m42.18-96.65H311.65M192.53,157.35H311.65M170.16,249H289.29M44.83,183.56H4m20.17-26.21H4"/><path class="cls-2" d="M33.72,64.11V21.75A17.8,17.8,0,0,1,51.48,4H326.72a17.8,17.8,0,0,1,17.75,17.75v180a17.81,17.81,0,0,1-17.75,17.75H316.35"/><path class="cls-2" d="M21.76,65.58H297a17.81,17.81,0,0,1,17.76,17.76V262.45A17.81,17.81,0,0,1,297,280.21H21.76A17.81,17.81,0,0,1,4,262.45V83.33A17.81,17.81,0,0,1,21.76,65.58Z"/></svg>