<svg id="Слой_1" data-name="Слой 1" xmlns="http://www.w3.org/2000/svg" viewBox="0 0 270.5 301.65"><defs><style>.cls-1,.cls-2,.cls-3{fill:none;stroke-linecap:round;stroke-linejoin:round;stroke-width:8px;}.cls-1{stroke:#ca3c3f;}.cls-2{stroke:#070707;}.cls-3{stroke:#0c0c0c;}</style></defs><title>Монтажная область 1</title><path class="cls-1" d="M97,115.63h67.42l2.91,88.13c.63,16.42-16.49,29.89-36.62,29.89h0c-20.13,0-37.25-13.46-36.62-29.89L97,115.63Zm54.34,52.49,1.37,34c.27,4.64-2.33,8.87-6.08,11.93a23.17,23.17,0,0,1-14.62,5h0m33.5-74.9H95.93M164.07,295.4H97.37m33.35-61.75v59.82"/><path class="cls-2" d="M148.87,97.56,152,8h107.8l4.65,140.91c1,26.26-26.36,47.79-58.54,47.79h0c-10.86,0-14-.4-22.87-4.66M238.91,91.9l2.19,54.43c.44,7.42-3.72,14.18-9.72,19.08A37,37,0,0,1,208,173.34h0M261.56,53.59H150.3M259.24,295.4H177.6m28.33-98.72v95.65"/><path class="cls-3" d="M79.26,208.46A51.08,51.08,0,0,1,56,213.66h0c-26.65,0-49.31-17.81-48.47-39.57L11.37,57.43h89.25l1.64,40.63M79.21,126.91,81,172c.36,6.14-3.08,11.74-8,15.79a30.67,30.67,0,0,1-19.35,6.57h0M101,95.19H9.94M84.14,295.4H11.84M56,213.66v79.19"/></svg>