<svg id="Слой_1" data-name="Слой 1" xmlns="http://www.w3.org/2000/svg" viewBox="0 0 349.91 352.5"><defs><style>.cls-1,.cls-2{fill:none;stroke-linecap:round;stroke-linejoin:round;stroke-width:8px;}.cls-1{stroke:#282f40;}.cls-2{stroke:#ca3c3f;}</style></defs><title>recipe</title><path class="cls-1" d="M257.58,138.64V40.41a12.45,12.45,0,0,0-12.25-12.25h-54.8"/><path class="cls-1" d="M72.05,28.16H16.25A12.4,12.4,0,0,0,4,40.41V336.25A12.37,12.37,0,0,0,16.25,348.5H245.33a12.41,12.41,0,0,0,12.25-12.25V202.37"/><path class="cls-2" d="M315,82.44l30.93,30.92L185.43,273.84c-32,32-62.92,1.07-30.92-30.92L315,82.44Z"/><polyline class="cls-2" points="280.81 218.71 340.87 158.87 289.52 107.53"/><line class="cls-2" x1="128.18" y1="299.13" x2="145.47" y2="281.84"/><path class="cls-2" d="M48.87,97.33l14.4,18.8L79.78,94.56M48.87,145.4l14.4,18.8,16.51-21.57M48.87,193.46l14.4,18.8L79.78,190.7"/><path class="cls-2" d="M106.42,104.19h94.5m-94.5,48.06h94.5"/><line class="cls-2" x1="106.42" y1="200.31" x2="152.84" y2="200.31"/><polygon class="cls-1" points="75 48.61 186.58 48.61 186.58 4 75 4 75 48.61 75 48.61"/></svg>