<svg id="Слой_1" data-name="Слой 1" xmlns="http://www.w3.org/2000/svg" viewBox="0 0 354.48 354.48"><defs><style>.cls-1{fill:none;stroke:#333;stroke-linecap:round;stroke-linejoin:round;stroke-width:8px;}</style></defs><title>shrimp</title><path class="cls-1" d="M285.56,4c-24.74,15.13-23.4,12-42.14,19.4L202.27,37.51,109,71.62l24.4,102.93C281.31,149.1,373.54,31.83,345.45,22.95L285,33.18M246.08,23.1a27,27,0,1,0,33.21,18.42A27,27,0,0,0,246.08,23.1ZM109,71.62c-41.4,13.32-71.44,32-91.27,58.21l98.19,73.82,19-28.57M26.08,136.13C6.12,162.32,3,202.28,7.16,228.22l104.48,8.6,4.25-33.17m-92,25.95c.63,36.53,26.46,66.49,38,82.26l54.85-45.39-5.09-29.65M74.8,306.4c26.8,25.23,62.93,35,98.45,42.53l2.64-45.79-59.15-36.67m57.1,72.28c31-3.24,66.13-13.55,97.27-38.95L283,224.29,175.88,303.14m-35.17-129,46.15,64.31m-65.77-42.61L181,253.88M113.22,224.5l64.44,45.19"/></svg>