<svg id="Слой_1" data-name="Слой 1" xmlns="http://www.w3.org/2000/svg" viewBox="0 0 350 334.21"><defs><style>.cls-1,.cls-2{fill:none;stroke-miterlimit:22.93;stroke-width:8px;}.cls-1{stroke:#ca3c3f;}.cls-2{stroke:#282f40;}</style></defs><title>stones</title><path class="cls-1" d="M233.74,135.53c-77.54,0-159.17,17.16-158.61,50.26s81.07,36.85,158.61,36.85S346,201.78,346,176s-34.71-40.51-112.26-40.51ZM144.92,4c21.74,0,39.37,11.2,39.37,25s-17.63,25-39.37,25-39.38-11.2-39.38-25S123.18,4,144.92,4Z"/><path class="cls-2" d="M133.91,229.4c89.74,0,183.56,28.38,183.56,58.17s-93.82,42.65-183.56,42.65S4,306.07,4,276.28,44.18,229.4,133.91,229.4ZM150.07,63.29c58.41,0,119.47,13.87,119.47,37.86s-61.06,27.76-119.47,27.76-84.55-12-84.55-35.1,26.15-30.51,84.55-30.52Z"/></svg>