<svg id="Слой_1" data-name="Слой 1" xmlns="http://www.w3.org/2000/svg" viewBox="0 0 353.45 278.61"><defs><style>.cls-1,.cls-2{fill:none;stroke-linecap:round;stroke-linejoin:round;stroke-width:8px;}.cls-1{stroke:#282f40;}.cls-2{stroke:#ca3c3f;}</style></defs><title>sushi_large</title><path class="cls-1" d="M166.92,52.88,104.85,8.58c-8.9-6.35-23.88-6.06-33.3.66l-60.21,43C1.93,58.93,1.51,69.63,10.41,76l62.07,44.3c8.9,6.35,23.88,6.05,33.3-.66l60.21-43c9.41-6.72,9.83-17.41.93-23.76ZM4,65.89l.29,75.56q0,.41,0,.83c0,4.94,1.42,7.78,7.05,11.8l60.21,43c5.67,4,13.58,5.67,21,4.82M343,52.88,281,8.58c-8.9-6.35-23.88-6.06-33.3.66l-60.21,43c-9.41,6.72-9.83,17.41-.93,23.77l62.07,44.3c8.9,6.35,23.88,6.05,33.3-.66l60.21-43c9.41-6.72,9.83-17.41.93-23.76ZM263.2,202c6.72.31,13.59-1.36,18.7-5l60.21-43c5.76-4.11,7.05-6.91,7.05-11.94V66.77m-93.6,58.65L193.5,81.13c-8.9-6.35-23.88-6.06-33.3.66l-60.21,43c-9.41,6.72-9.83,17.41-.93,23.77l62.07,44.3c8.9,6.35,23.88,6.05,33.3-.66l60.21-43c9.41-6.72,9.83-17.41.93-23.77ZM92.7,138.4,92.94,214q0,.41,0,.83c0,4.94,1.42,7.78,7.05,11.8l60.21,43c9.39,6.7,24.81,6.72,34.22,0l60.21-43c5.76-4.11,7.05-6.91,7.05-11.94v-.55l.42-75.57"/><path class="cls-2" d="M122.28,59.47l-26.66-19c-3.82-2.73-10.26-2.6-14.3.28L55.45,59.18c-4,2.89-4.22,7.48-.4,10.21l26.66,19C85.54,91.15,92,91,96,88.14l25.86-18.46c4-2.89,4.22-7.48.4-10.21Zm176.12,0-26.66-19c-3.82-2.73-10.26-2.6-14.3.28L231.57,59.18c-4,2.89-4.22,7.48-.4,10.21l26.66,19c3.82,2.73,10.26,2.6,14.3-.28L298,69.68c4-2.89,4.22-7.48.4-10.21ZM210.92,132l-26.66-19c-3.82-2.73-10.26-2.6-14.3.29L144.1,131.73c-4,2.89-4.22,7.48-.4,10.21l26.66,19c3.82,2.73,10.26,2.6,14.3-.28l25.86-18.46c4-2.89,4.22-7.48.4-10.21Z"/></svg>