<svg id="Слой_1" data-name="Слой 1" xmlns="http://www.w3.org/2000/svg" viewBox="0 0 306.93 357.65"><defs><style>.cls-1,.cls-2{fill:none;stroke-linecap:round;stroke-linejoin:round;stroke-width:8px;}.cls-1{stroke:#282f40;}.cls-2{stroke:#ca3c3f;}</style></defs><title>sushi_small</title><path class="cls-1" d="M291.61,90.29,182,12.08C166.32.86,139.87,1.39,123.26,13.25L17,89.12C.34,101-.39,119.86,15.32,131.07L124.9,209.28c15.71,11.22,42.16,10.69,58.78-1.17L290,132.24c16.62-11.86,17.36-30.74,1.64-42ZM4.19,114.05,4.51,246.6q0,.73,0,1.47C4.51,256.78,7,261.8,17,268.9l106.3,75.87c16.57,11.82,43.81,11.86,60.42,0L290,268.9c10.17-7.26,12.45-12.2,12.45-21.07v-1l.51-134"/><path class="cls-2" d="M212.8,101.92,165.74,68.33c-6.75-4.82-18.11-4.59-25.25.5L94.83,101.42c-7.14,5.09-7.45,13.2-.7,18L141.19,153c6.75,4.82,18.11,4.59,25.25-.5l45.66-32.59c7.14-5.09,7.45-13.2.7-18Z"/></svg>