<svg id="Слой_1" data-name="Слой 1" xmlns="http://www.w3.org/2000/svg" viewBox="0 0 344.85 343.28"><defs><style>.cls-1,.cls-2{fill:none;stroke-linecap:round;stroke-linejoin:round;stroke-width:8px;}.cls-1{stroke:#ca3c3f;}.cls-2{stroke:#282f40;}</style></defs><title>tableware</title><path class="cls-1" d="M325,5.15l12.91,25.62C225.41,70.09,124.52,108.5,13.32,151.62L6,136.8,325,5.15ZM130,84.27c-43.74.87-79.58,1.57-123.67,2.48L4.43,103.41l79.12.58m52.7.4,200.58,1.35,3.5-28.88c-52.78,2.89-94.56,4.69-146.94,6"/><path class="cls-2" d="M308.82,294.65v32.78c0,5.9-2.66,8.75-8.15,8.75h-30c-5.5,0-8.16-2.79-8.16-8.75V294.65m-46.37-50.91c-22.35-10-38.07-33.64-38.07-61.24a71.11,71.11,0,0,1,.85-11H300.83a71.46,71.46,0,0,1,.85,11c0,27.6-15.72,51.26-38.07,61.24ZM82.45,294.65v32.78c0,5.9-2.66,8.75-8.15,8.75h-30c-5.5,0-8.16-2.79-8.16-8.75V294.65m-20.4-50.91H329.22c6.13,0,7.28,1.26,7.28,7.8v30.2c0,6.53-1.19,7.81-7.28,7.81H15.75c-6.08,0-7.27-1.22-7.27-7.81v-30.2c0-6.58,1.14-7.8,7.27-7.8Z"/></svg>